# 3ds Max Wavefront OBJ Exporter v0.97b - (c)2007 guruware
# File Created: 06.10.2016 13:03:22

#
# object Box01
#

v  81.0000 -81.0000 15.0000
v  -81.0000 -81.0000 15.0000
v  -81.0000 -81.0000 -15.0000
v  81.0000 -81.0000 -15.0000
v  81.0000 81.0000 -15.0000
v  81.0000 81.0000 15.0000
v  -81.0000 81.0000 15.0000
v  -81.0000 81.0000 -15.0000
# 8 vertices

vn 0.0000 -1.0000 -0.0000
vn 1.0000 0.0000 0.0000
vn 0.0000 -0.0000 1.0000
vn -1.0000 0.0000 0.0000
# 4 vertex normals

vt 1.0000 0.1123 0.0000
vt 0.0000 0.1123 0.0000
vt 0.0000 0.0000 0.0000
vt 1.0000 0.0000 0.0000
vt 0.0000 0.1137 0.0000
vt -0.0000 -0.0000 0.0000
vt 0.9985 -0.0000 0.0000
vt 0.9985 0.1137 0.0000
vt 0.0007 0.1154 0.0000
vt 0.9949 0.1153 0.0000
vt 0.9949 0.9971 0.0000
vt 0.0008 0.9971 0.0000
# 12 texture coords

g Box01
s 4
f 1/1/1 2/2/1 3/3/1 4/4/1 
s 16
f 1/5/2 4/6/2 5/7/2 6/8/2 
s 32
f 2/9/3 1/10/3 6/11/3 7/12/3 
s 64
f 3/7/4 2/8/4 7/5/4 8/6/4 
# 4 polygons

